<?xml version="1.0" standalone="no"?>
<!DOCTYPE svg PUBLIC "-//W3C//DTD SVG 20010904//EN"
 "http://www.w3.org/TR/2001/REC-SVG-20010904/DTD/svg10.dtd">
<svg version="1.0" xmlns="http://www.w3.org/2000/svg"
 width="400.000000pt" height="250.000000pt" viewBox="0 0 400.000000 250.000000"
 preserveAspectRatio="xMidYMid meet">

<g transform="translate(0.000000,250.000000) scale(0.100000,-0.100000)"
fill="#702082" stroke="none">
<path d="M1020 1790 l0 -283 128 5 c103 4 137 9 177 27 103 46 148 124 148
256 0 90 -14 133 -62 187 -52 60 -116 80 -263 86 l-128 5 0 -283z m260 162
c49 -24 74 -79 74 -162 0 -121 -45 -172 -156 -178 l-68 -4 0 181 0 181 58 0
c34 0 71 -7 92 -18z"/>
<path d="M1712 2043 c-23 -58 -182 -516 -182 -524 0 -5 27 -9 60 -9 l59 0 19
63 18 62 106 3 106 3 17 -66 18 -65 63 0 c35 0 64 1 64 3 0 1 -44 126 -98 277
l-97 275 -71 3 c-70 3 -71 2 -82 -25z m148 -290 c0 -9 -21 -13 -70 -13 -38 0
-70 2 -70 4 0 1 4 16 10 32 5 16 21 69 36 119 l27 89 33 -109 c18 -61 34 -116
34 -122z"/>
<path d="M2080 2020 l0 -50 75 0 75 0 0 -230 0 -230 60 0 60 0 0 230 0 230 75
0 75 0 0 50 0 50 -210 0 -210 0 0 -50z"/>
<path d="M2616 1795 c-53 -152 -96 -278 -96 -281 0 -3 28 -4 61 -2 l61 3 20
63 19 62 104 0 104 0 19 -62 18 -63 63 -3 c49 -2 62 0 59 10 -3 7 -47 133 -99
281 l-94 267 -71 0 -71 0 -97 -275z m240 -53 c-2 -1 -35 -2 -74 0 l-69 3 35
120 36 119 38 -119 c20 -66 36 -121 34 -123z"/>
<path d="M2155 979 c-84 -11 -140 -51 -181 -129 -29 -54 -27 -250 3 -305 47
-88 117 -127 228 -129 93 -1 153 23 203 79 48 54 64 105 64 205 0 100 -16 151
-64 205 -57 64 -142 89 -253 74z m122 -106 c50 -23 73 -77 73 -173 0 -97 -23
-150 -75 -174 -80 -38 -172 2 -195 83 -13 46 -13 136 0 180 25 87 113 124 197
84z"/>
<path d="M80 700 l0 -280 160 0 160 0 0 50 0 50 -105 0 -105 0 0 70 0 70 95 0
95 0 0 50 0 50 -95 0 -95 0 0 60 0 60 105 0 105 0 0 50 0 50 -160 0 -160 0 0
-280z"/>
<path d="M466 968 c4 -7 43 -69 86 -137 l79 -123 -84 -132 c-46 -72 -87 -137
-91 -143 -5 -10 8 -13 53 -13 l61 0 29 48 c16 26 46 73 66 106 l37 59 65 -107
65 -106 64 0 c50 0 63 3 58 13 -4 6 -43 65 -86 130 -44 65 -81 123 -84 130 -2
7 34 73 81 147 l84 135 -51 3 c-28 2 -56 1 -63 -2 -7 -2 -36 -45 -65 -96 -29
-50 -56 -92 -59 -95 -4 -2 -34 41 -66 96 l-60 99 -63 0 c-48 0 -61 -3 -56 -12z"/>
<path d="M1040 701 l0 -281 55 0 54 0 3 98 3 97 71 6 c133 12 194 71 194 187
0 64 -27 112 -80 141 -38 21 -60 25 -172 29 l-128 5 0 -282z m240 159 c27 -27
27 -93 1 -119 -20 -20 -102 -38 -120 -26 -6 3 -11 40 -11 86 l0 79 55 0 c42 0
60 -5 75 -20z"/>
<path d="M1530 700 l0 -280 170 0 170 0 0 50 0 50 -115 0 -115 0 0 230 0 230
-55 0 -55 0 0 -280z"/>
<path d="M2598 975 c-5 -5 -8 -131 -8 -282 l0 -273 60 0 59 0 3 108 3 107 29
0 c27 0 36 -10 96 -105 l66 -105 62 -3 c34 -2 62 0 62 3 0 3 -34 57 -77 120
l-76 115 41 36 c89 76 76 206 -26 255 -34 17 -69 22 -165 26 -67 3 -125 2
-129 -2z m236 -116 c31 -25 35 -66 8 -99 -14 -18 -32 -24 -75 -28 l-57 -4 0
76 0 76 49 0 c34 0 56 -6 75 -21z"/>
<path d="M3110 700 l0 -280 160 0 160 0 0 50 0 50 -105 0 -105 0 0 70 0 70 95
0 95 0 0 50 0 50 -95 0 -95 0 0 60 0 60 105 0 105 0 0 50 0 50 -160 0 -160 0
0 -280z"/>
<path d="M3550 701 l0 -281 55 0 54 0 3 108 c3 106 3 107 29 110 30 4 38 -5
113 -125 l58 -93 64 0 64 0 -80 117 c-44 64 -80 119 -80 122 0 4 14 15 31 25
44 26 73 95 65 153 -14 102 -70 133 -253 141 l-123 5 0 -282z m223 168 c30
-16 37 -28 37 -66 0 -45 -38 -73 -101 -73 l-49 0 0 75 0 75 46 0 c25 0 55 -5
67 -11z"/>
</g>
</svg>
